# xmcd CD database file
#
# Track frame offsets:
#	150
#	16195
#	25574
#	37124
#	51223
#	65292
#	75562
#	89101
#	99222
#	111972
#	122486
#	137506
#	152561
#	166147
#
# Disc length: 2398 seconds
#
# Revision: 0
# Processed by: cddbd v1.5.2PL0 Copyright (c) Steve Scherf et al.
# Submitted via: CDex 1.51
#
DISCID=a2095c0e
DTITLE=Penelope queen - I'd rather be naked
DYEAR=1900
DGENRE=Jazz
TTITLE0=Drawn
TTITLE1=L.O.L
TTITLE2=Just lay
TTITLE3=Little one
TTITLE4=Speechless
TTITLE5=Who's my daddy
TTITLE6=Silly things
TTITLE7=My garden
TTITLE8=Says the rain
TTITLE9=Heart beat
TTITLE10=That thing, that voice (ft. Louis Guiyoule)
TTITLE11=Girls don't cry
TTITLE12=Ms nobody
TTITLE13=When spring arrives
EXTD=
EXTT0=
EXTT1=
EXTT2=
EXTT3=
EXTT4=
EXTT5=
EXTT6=
EXTT7=
EXTT8=
EXTT9=
EXTT10=
EXTT11=
EXTT12=
EXTT13=
PLAYORDER=
